<?xml version="1.0" encoding="utf-8"?>
<!-- Generator: Adobe Illustrator 18.1.1, SVG Export Plug-In . SVG Version: 6.00 Build 0)  -->
<svg version="1.1" id="Layer_1" xmlns="http://www.w3.org/2000/svg" xmlns:xlink="http://www.w3.org/1999/xlink" x="0px" y="0px"
	 viewBox="304.618 -0.641 352.667 352.665" enable-background="new 304.618 -0.641 352.667 352.665" xml:space="preserve">
<g>
	<g>
		<path fill="#53B93B" d="M480.762,89.701L351.518,218.946c10.84,0,21.683,0,32.523,0l62.767-62.767l63.144,63.144h100.431
			L480.762,89.701z M463.069,139.916l17.693-17.693l74.103,74.103h-35.387L463.069,139.916z"/>
	</g>
</g>
<path fill="#53B93B" d="M480.951,352.024c-97.231,0-176.333-79.102-176.333-176.333S383.721-0.641,480.951-0.641
	s176.334,79.102,176.334,176.333S578.181,352.024,480.951,352.024z M480.951,22.952c-84.221,0-152.738,68.518-152.738,152.738
	s68.518,152.738,152.738,152.738s152.74-68.517,152.74-152.738S565.172,22.952,480.951,22.952z"/>
</svg>
