<?xml version="1.0" encoding="utf-8"?>
<!-- Generator: Adobe Illustrator 18.1.1, SVG Export Plug-In . SVG Version: 6.00 Build 0)  -->
<svg version="1.1" id="Layer_1" xmlns="http://www.w3.org/2000/svg" xmlns:xlink="http://www.w3.org/1999/xlink" x="0px" y="0px"
	 viewBox="66 -16 508 512" enable-background="new 66 -16 508 512" xml:space="preserve">
<g>
	<g>
		<g>
			<path fill="#339933" d="M319.7,123L143.8,298.9c14.7,0,29.4,0,44.3,0l85.4-85.4l85.9,85.9h136.6L319.7,123z M295.7,191.4
				l24.2-24.2L420.6,268h-48.2L295.7,191.4z"/>
		</g>
	</g>
	<path fill="#339933" d="M320,480C187.7,480,80,372.3,80,240S187.7,0,320,0s240,107.7,240,240S452.3,480,320,480z M320,32.2
		c-114.6,0-207.8,93.3-207.8,207.8S205.4,447.8,320,447.8S527.8,354.6,527.8,240S434.6,32.2,320,32.2z"/>
</g>
</svg>
