<?xml version="1.0" encoding="utf-8"?>
<!-- Generator: Adobe Illustrator 18.1.0, SVG Export Plug-In . SVG Version: 6.00 Build 0)  -->
<svg version="1.1" id="Layer_1" xmlns="http://www.w3.org/2000/svg" xmlns:xlink="http://www.w3.org/1999/xlink" x="0px" y="0px"
	 viewBox="156 246 300 300" enable-background="new 156 246 300 300" xml:space="preserve">
<g>
	<g>
		<path fill="#53B93B" d="M305.8,322.9L195.9,432.8c9.2,0,18.4,0,27.7,0l53.4-53.4l53.7,53.7h85.4L305.8,322.9z M290.8,365.6
			l15.1-15.1l63,63h-30.1L290.8,365.6z"/>
	</g>
</g>
<path fill="#53B93B" d="M306,546c-82.7,0-150-67.3-150-150s67.3-150,150-150s150,67.3,150,150S388.7,546,306,546z M306,266.1
	c-71.6,0-129.9,58.3-129.9,129.9S234.4,525.9,306,525.9S435.9,467.6,435.9,396S377.6,266.1,306,266.1z"/>
</svg>
